<svg version="1.1" xmlns="http://www.w3.org/2000/svg" xmlns:xlink="http://www.w3.org/1999/xlink" width="135.208984375" height="123"><defs/><g><text fill="#eeeeee" stroke="none" font-family="Arial" font-size="24px" font-style="normal" font-weight="normal" text-decoration="none" x="0" y="0">UNREGISTERED</text><text fill="#eeeeee" stroke="none" font-family="Arial" font-size="24px" font-style="normal" font-weight="normal" text-decoration="none" x="0" y="30">UNREGISTERED</text><text fill="#eeeeee" stroke="none" font-family="Arial" font-size="24px" font-style="normal" font-weight="normal" text-decoration="none" x="0" y="60">UNREGISTERED</text><text fill="#eeeeee" stroke="none" font-family="Arial" font-size="24px" font-style="normal" font-weight="normal" text-decoration="none" x="0" y="90">UNREGISTERED</text><text fill="#eeeeee" stroke="none" font-family="Arial" font-size="24px" font-style="normal" font-weight="normal" text-decoration="none" x="0" y="120">UNREGISTERED</text><g transform="translate(-10,-10) scale(1,1)"><path fill="#C0C0C0" stroke="none" d="M 73.1044921875 38.5 C 73.1044921875 32.1487248 78.2532169875 27 84.6044921875 27 C 90.9557673875 27 96.1044921875 32.1487248 96.1044921875 38.5 C 96.1044921875 44.8512752 90.9557673875 50 84.6044921875 50 C 78.2532169875 50 73.1044921875 44.8512752 73.1044921875 38.5 Z" opacity="0.2"/></g><g transform="translate(-10,-10) scale(1,1)"><path fill="#ffffff" stroke="none" d="M 66.1044921875 31.5 C 66.1044921875 25.1487248 71.2532169875 20 77.6044921875 20 C 83.9557673875 20 89.1044921875 25.1487248 89.1044921875 31.5 C 89.1044921875 37.8512752 83.9557673875 43 77.6044921875 43 C 71.2532169875 43 66.1044921875 37.8512752 66.1044921875 31.5 Z"/></g><g transform="translate(-10,-10) scale(1,1)"><path fill="none" stroke="#000000" d="M 66.1044921875 31.5 C 66.1044921875 25.1487248 71.2532169875 20 77.6044921875 20 C 83.9557673875 20 89.1044921875 25.1487248 89.1044921875 31.5 C 89.1044921875 37.8512752 83.9557673875 43 77.6044921875 43 C 71.2532169875 43 66.1044921875 37.8512752 66.1044921875 31.5 Z" stroke-miterlimit="10"/></g><g transform="translate(-10,-10) scale(1,1)"><g><path fill="none" stroke="none"/><text fill="#000000" stroke="none" font-family="Arial" font-size="13px" font-style="normal" font-weight="bold" text-decoration="none" x="27.385009765625" y="62.5">ISiteEmailSender</text></g></g><g transform="translate(-10,-10) scale(1,1)"><rect fill="#C0C0C0" stroke="none" x="29.529541015625" y="106" width="111.59716796875" height="24" opacity="0.2"/></g><g transform="translate(-10,-10) scale(1,1)"><rect fill="#ffffff" stroke="none" x="22.529541015625" y="99" width="111.59716796875" height="24"/></g><g transform="translate(-10,-10) scale(1,1)"><path fill="none" stroke="#000000" d="M 22.529541015625 99 L 134.126708984375 99 L 134.126708984375 123 L 22.529541015625 123 L 22.529541015625 99 Z Z" stroke-miterlimit="10"/></g><g transform="translate(-10,-10) scale(1,1)"><g><path fill="none" stroke="none"/><text fill="#000000" stroke="none" font-family="Arial" font-size="13px" font-style="normal" font-weight="bold" text-decoration="none" x="29.91455078125" y="118.5">SiteEmailSender</text></g></g><g transform="translate(-10,-10) scale(1,1)"><path fill="none" stroke="#000000" d="M 78 98 L 77 69" stroke-miterlimit="10"/></g><g transform="translate(-10,-10) scale(1,1)"><path fill="#FFFFFF" stroke="none" d="M 86.11449240792251 89.02313732025834 L 77 69 L 69.2864232089312 89.60341556849943"/></g><g transform="translate(-10,-10) scale(1,1)"><path fill="none" stroke="#000000" d="M 86.11449240792251 89.02313732025834 L 77 69 L 69.2864232089312 89.60341556849943 L 86.11449240792251 89.02313732025834" stroke-miterlimit="10"/></g><g transform="translate(-10,-10) scale(1,1)"><path fill="none" stroke="#000000" d="M 76 98 Q 74 84 76.36842105263158 43" stroke-miterlimit="10"/></g></g></svg>